<?xml version="1.0" encoding="UTF-8" standalone="no"?>
<!-- Created with Inkscape (http://www.inkscape.org/) -->

<svg

   viewBox="0 0 99.863335 10.130882"
   version="1.1"
   id="svg1"
   xml:space="preserve"
   xmlns="http://www.w3.org/2000/svg"
   xmlns:svg="http://www.w3.org/2000/svg"><defs
     id="defs1" /><g
     id="layer1"
     transform="translate(-35.710185,-122.62146)"><g
       id="g4"
       transform="matrix(2.4963619,0,0,2.4963619,-76.813418,-218.0238)"><path
         style="fill:#b3b3b3;stroke-width:0.0127407"
         d="m 46.202878,140.43831 v -0.0758 l 0.35648,-10e-4 0.356478,-0.001 9e-4,-0.0392 8.99e-4,-0.0392 0.115352,-0.002 c 0.125546,-0.002 0.164476,-0.006 0.228919,-0.0222 0.143307,-0.0362 0.228044,-0.11293 0.257286,-0.233 0.0036,-0.0149 0.0063,-0.0511 0.0085,-0.11293 0.0051,-0.14738 0.0147,-0.24635 0.03198,-0.32819 0.0113,-0.0535 0.02252,-0.0871 0.04011,-0.12008 0.0079,-0.0149 0.02289,-0.043 0.03323,-0.0624 0.01034,-0.0195 0.02196,-0.0448 0.02581,-0.0563 l 0.007,-0.021 -1.3e-5,-0.76783 c -1.2e-5,-0.7585 -8.9e-5,-0.76798 -0.0067,-0.77876 -0.0037,-0.006 -0.02094,-0.0258 -0.03841,-0.0441 -0.03655,-0.0382 -0.04684,-0.0562 -0.05793,-0.10151 -0.02146,-0.0876 -0.0298,-0.16525 -0.02998,-0.27909 l -1.01e-4,-0.0918 -0.0354,-0.0233 c -0.07544,-0.0497 -0.144764,-0.0763 -0.234281,-0.0897 -0.03076,-0.005 -0.04772,-0.004 -0.193831,0.002 -0.201324,0.009 -0.417335,0.0124 -0.546096,0.009 -0.189928,-0.004 -0.246743,-0.0141 -0.350497,-0.06 -0.05755,-0.0255 -0.120865,-0.0629 -0.199476,-0.11797 -0.005,-0.004 -0.0012,0.007 0.01404,0.037 0.02008,0.0401 0.197355,0.39915 0.330291,0.66904 0.0347,0.0705 0.121162,0.24566 0.192134,0.38934 0.276447,0.55968 0.302824,0.61352 0.300626,0.61357 -0.0012,2e-5 -3.03e-4,0.001 0.0022,0.003 0.0031,0.002 -0.0049,0.009 -0.02696,0.023 -0.151206,0.0974 -0.354387,0.17599 -0.555219,0.21491 -0.366026,0.0709 -0.768009,0.007 -1.055276,-0.16701 -0.04454,-0.027 -0.0973,-0.0648 -0.09989,-0.0716 -8.99e-4,-0.002 0.03762,-0.0839 0.08561,-0.18112 0.048,-0.0973 0.171878,-0.34824 0.275297,-0.55775 0.10342,-0.2095 0.225465,-0.45676 0.271213,-0.54946 0.04575,-0.0927 0.114786,-0.23259 0.153419,-0.31086 0.03863,-0.0783 0.07158,-0.14148 0.07321,-0.14047 0.0016,0.001 -0.02337,-0.0245 -0.05557,-0.0566 -0.109662,-0.10943 -0.143193,-0.17957 -0.125871,-0.26331 0.02407,-0.11635 0.111337,-0.18248 0.221271,-0.16766 0.03378,0.005 0.08718,0.0216 0.121895,0.0391 0.07124,0.0357 0.103592,0.0765 0.09932,0.12534 -0.0023,0.026 -0.0037,0.0285 -0.03216,0.0603 -0.0261,0.029 -0.03579,0.0462 -0.04086,0.0724 -0.0077,0.0399 0.0058,0.07 0.05003,0.11156 0.0489,0.0459 0.09953,0.0758 0.150445,0.0887 0.06224,0.0157 0.119678,0.02 0.269912,0.0201 0.119719,6e-5 0.147679,-0.001 0.209,-0.007 0.140311,-0.0149 0.21694,-0.019 0.35058,-0.0193 0.135884,-2e-4 0.178318,0.003 0.262934,0.0168 0.04403,0.007 0.103933,0.0216 0.14042,0.0332 l 0.0157,0.005 0.0091,-0.0292 c 0.01259,-0.0404 0.02752,-0.0687 0.06512,-0.12368 0.07418,-0.10841 0.07786,-0.11435 0.08195,-0.13246 0.0034,-0.0152 0.0032,-0.0205 -0.0017,-0.0361 -0.0056,-0.0179 -0.0063,-0.0186 -0.03266,-0.0323 -0.03657,-0.019 -0.04204,-0.0272 -0.04157,-0.0621 9e-4,-0.0691 0.02186,-0.11117 0.0652,-0.13104 0.02293,-0.0105 0.07587,-0.0101 0.10038,0.001 0.04112,0.0184 0.06485,0.0679 0.06494,0.13554 3.7e-5,0.027 -0.0085,0.0383 -0.04252,0.056 l -0.0273,0.0142 -0.0057,0.0204 c -0.0052,0.0186 -0.0053,0.022 -5.82e-4,0.038 0.003,0.0102 0.01532,0.0324 0.02941,0.053 0.06839,0.0996 0.08745,0.12909 0.09853,0.15211 0.01567,0.0326 0.03349,0.0959 0.04515,0.16053 l 0.0093,0.0514 0.06573,0.0222 c 0.07771,0.0263 0.108545,0.0387 0.159413,0.0642 0.131394,0.0658 0.293051,0.1839 0.48107,0.35136 0.06899,0.0615 0.09703,0.0845 0.155938,0.12827 0.09366,0.0696 0.188648,0.12937 0.242175,0.15245 0.04184,0.018 0.0734,0.0239 0.129443,0.0238 0.07642,-7e-5 0.124643,-0.0133 0.145498,-0.0398 0.02516,-0.032 0.03044,-0.055 0.02465,-0.10707 -0.004,-0.0363 -0.0039,-0.0381 0.0034,-0.0552 0.0088,-0.0204 0.02782,-0.039 0.0502,-0.0491 0.0216,-0.01 0.07584,-0.0118 0.116016,-0.004 0.0714,0.0134 0.127187,0.0393 0.164125,0.0761 0.06128,0.0611 0.0711,0.14701 0.02716,0.23777 -0.03001,0.062 -0.102016,0.1037 -0.216721,0.12547 -0.01622,0.003 -0.02949,0.007 -0.02949,0.009 0,0.002 0.130697,0.26809 0.290436,0.59175 0.499182,1.01141 0.555675,1.1262 0.555675,1.12903 0,0.002 -0.0034,0.004 -0.0076,0.006 -0.0042,0.002 -0.01849,0.0116 -0.03178,0.0216 -0.122905,0.0923 -0.313653,0.17228 -0.500403,0.20995 -0.288683,0.0582 -0.592789,0.0361 -0.872625,-0.0634 -0.117034,-0.0416 -0.240052,-0.10181 -0.324673,-0.1588 -0.01599,-0.0107 -0.01665,-0.0117 -0.0082,-0.0117 0.0051,0 0.0092,-0.002 0.0092,-0.004 0,-0.002 0.04348,-0.092 0.09663,-0.19973 0.05315,-0.10771 0.132201,-0.26789 0.175672,-0.35596 0.04347,-0.0881 0.132932,-0.26934 0.198801,-0.40283 0.06587,-0.13349 0.149332,-0.30263 0.185473,-0.37586 0.14441,-0.29262 0.188634,-0.38263 0.18825,-0.38315 -2.02e-4,-3e-4 -0.01937,0.001 -0.04254,0.003 -0.106519,0.008 -0.262604,-0.01 -0.358035,-0.0412 -0.106998,-0.0355 -0.300114,-0.17006 -0.693706,-0.48342 -0.104154,-0.0829 -0.122621,-0.0952 -0.179714,-0.11965 -0.05572,-0.0239 -0.107795,-0.0375 -0.162674,-0.0425 l -0.02383,-0.002 -0.0041,0.0503 c -0.0079,0.0973 -0.02688,0.19681 -0.04447,0.23264 -0.0069,0.0141 -0.02115,0.0323 -0.04335,0.0556 -0.01819,0.019 -0.03557,0.0395 -0.03862,0.0454 -0.0051,0.01 -0.0055,0.0721 -0.0055,0.77532 l 5e-5,0.76454 0.0096,0.0276 c 0.0053,0.0151 0.02255,0.0508 0.03838,0.0792 0.01584,0.0284 0.03285,0.0631 0.03781,0.077 0.02902,0.0813 0.0465,0.21307 0.05234,0.3944 0.0039,0.12115 0.0083,0.14384 0.0397,0.20359 0.01513,0.0288 0.05735,0.0742 0.08787,0.0943 0.06053,0.04 0.128761,0.0632 0.224682,0.0763 0.01483,0.002 0.07968,0.005 0.14411,0.006 l 0.11714,0.002 v 0.04 0.04 h 0.357322 0.357323 v 0.0758 0.0759 h -1.564132 -1.564127 z m 3.269834,-1.48493 c 0,-0.46907 -7.94e-4,-0.85285 -0.0019,-0.85285 -0.0017,0 -0.04935,0.0957 -0.218901,0.43991 -0.03014,0.0612 -0.08702,0.17647 -0.12641,0.25619 -0.03938,0.0797 -0.100027,0.20259 -0.134761,0.27305 -0.164818,0.33431 -0.315531,0.63942 -0.338649,0.68558 l -0.02553,0.051 h 0.423077 0.423077 z m 0.866337,0.85071 c 0,-0.001 -0.045,-0.0933 -0.1,-0.20479 -0.055,-0.11145 -0.133659,-0.2709 -0.1748,-0.35433 -0.439888,-0.89206 -0.572431,-1.16009 -0.575015,-1.16281 -0.0018,-0.002 -0.0031,0.34726 -0.0031,0.86043 v 0.86364 h 0.426427 c 0.234535,0 0.426427,-0.001 0.426427,-0.002 z m -4.409218,-1.96554 v -0.85527 l -0.04081,0.0825 c -0.02244,0.0454 -0.09547,0.19321 -0.162279,0.32856 -0.06681,0.13535 -0.154057,0.31207 -0.193885,0.39272 -0.271281,0.54933 -0.445765,0.90377 -0.445765,0.90552 0,5.3e-4 0.189617,0.001 0.42137,0.001 h 0.421371 z m 0.863412,0.84263 c -0.0035,-0.007 -0.05878,-0.11883 -0.122755,-0.24861 -0.06398,-0.12979 -0.153828,-0.31182 -0.199666,-0.40452 -0.04584,-0.0927 -0.100422,-0.20344 -0.121298,-0.24608 -0.02088,-0.0426 -0.0823,-0.16703 -0.136495,-0.27642 -0.05419,-0.10939 -0.108062,-0.21861 -0.119703,-0.24271 -0.01164,-0.0241 -0.05015,-0.10219 -0.08559,-0.17353 l -0.06442,-0.1297 v 0.86711 0.8671 h 0.428181 0.428181 z"
         id="path1" /><text
         xml:space="preserve"
         style="font-size:2.94609px;text-align:start;writing-mode:lr-tb;direction:ltr;text-anchor:start;fill:#ffffff;stroke-width:0.245507"
         x="54.44302"
         y="129.49727"
         id="text1"
         transform="scale(0.92790199,1.0777)"><tspan
           id="tspan1"
           x="54.44302"
           y="129.49727"
           style="font-style:normal;font-variant:normal;font-weight:bold;font-stretch:normal;font-family:'Times New Roman';-inkscape-font-specification:'Times New Roman,  Bold';fill:#ffffff;stroke-width:0.245507">POTENTIALLY CRIMINAL</tspan></text></g></g></svg>
